<svg width="14" height="19" viewBox="0 0 14 19" fill="none" xmlns="http://www.w3.org/2000/svg">
<path d="M6.99992 4.83352C8.76803 4.83352 10.4637 5.53589 11.714 6.78614C12.9642 8.03638 13.6666 9.73207 13.6666 11.5002C13.6666 13.2683 12.9642 14.964 11.714 16.2142C10.4637 17.4645 8.76803 18.1668 6.99992 18.1668C5.23181 18.1668 3.53612 17.4645 2.28587 16.2142C1.03563 14.964 0.333252 13.2683 0.333252 11.5002C0.333252 9.73207 1.03563 8.03638 2.28587 6.78614C3.53612 5.53589 5.23181 4.83352 6.99992 4.83352ZM6.99992 7.75018L5.89742 9.98352L3.43325 10.3418L5.21658 12.0793L4.79575 14.5343L6.99992 13.3752L9.20409 14.5335L8.78325 12.0793L10.5666 10.341L8.10242 9.98268L6.99992 7.75018ZM7.83325 0.666016L11.9999 0.666849V3.16685L10.8641 4.11518C9.92154 3.62067 8.89247 3.31254 7.83325 3.20768V0.666849V0.666016ZM6.16658 0.666016V3.20768C5.10771 3.31239 4.07894 3.62023 3.13658 4.11435L1.99992 3.16685V0.666849L6.16658 0.666016Z" fill="white"/>
</svg>
